<svg xmlns="http://www.w3.org/2000/svg" viewBox="0 0 371.32 423.19"><defs><style>.cls-1,.cls-2{fill:none;stroke:blue;stroke-width:0.03px;}.cls-1{stroke-linejoin:bevel;}.cls-2{stroke-miterlimit:10;}</style></defs><title>base_top</title><g id="Main_outline" data-name="Main outline"><path class="cls-1" d="M238,420.76,362.3,349a18,18,0,0,0,9-15.59V89.81a18,18,0,0,0-9-15.59L238,2.43a18,18,0,0,0-18,0L9,124.21A18,18,0,0,0,0,139.8V283.39A18,18,0,0,0,9,299L220,420.76a18,18,0,0,0,18,0Z" transform="translate(0 0)"/><path class="cls-1" d="M238,132.77V140a3.6,3.6,0,0,1-3.6,3.6H165.81a3.6,3.6,0,0,1-3.6-3.6v-7.2a3.62,3.62,0,0,1,3.6-3.6h68.55a3.6,3.6,0,0,1,3.6,3.6Z" transform="translate(0 0)"/><path class="cls-1" d="M162.21,290.53v-7.2a3.59,3.59,0,0,1,3.6-3.6h68.55a3.6,3.6,0,0,1,3.6,3.6v7.2a3.62,3.62,0,0,1-3.6,3.6H165.81a3.62,3.62,0,0,1-3.6-3.6Z" transform="translate(0 0)"/></g><g id="Standoffs"><circle class="cls-2" cx="78.5" cy="112.29" r="4.39"/><circle class="cls-2" cx="174.99" cy="56.8" r="4.39"/><circle class="cls-2" cx="346.89" cy="155.96" r="4.39"/><circle class="cls-2" cx="346.69" cy="267.27" r="4.39"/><circle class="cls-2" cx="174.87" cy="366.56" r="4.39"/><circle class="cls-2" cx="78.57" cy="310.74" r="4.39"/></g><g id="Nunchuky_mount" data-name="Nunchuky mount"><circle class="cls-2" cx="23.53" cy="189.02" r="2.27"/><circle class="cls-2" cx="23.53" cy="234.38" r="2.27"/></g><g id="Servos"><path class="cls-2" d="M63.67,112.29l3.52,6.08L20.6,145.27l-3.52-6.08,21.7-12.53,0,0,0,0L36.12,122l3.15-1.82,2.66,4.62,0,0,0,0,21.7-12.52m0,0L42,124.79l-2.68-4.64L36.09,122l2.68,4.64L17,139.18l3.55,6.13,46.64-26.93-3.55-6.13Z" transform="translate(0 0)"/><rect class="cls-2" x="63.93" y="179.78" width="22.68" height="12.76" transform="translate(-83 62.57) rotate(-30)"/><path class="cls-2" d="M228.88,16.9,232.4,23l-46.6,26.9-3.51-6.09L204,31.27l0,0v0l-2.67-4.62,3.15-1.81,2.66,4.62,0,0h0l21.7-12.53m0,0L207.17,29.4l-2.68-4.64-3.2,1.84L204,31.24,182.25,43.79l3.54,6.13L232.44,23l-3.55-6.14Z" transform="translate(0 0)"/><rect class="cls-2" x="229.13" y="84.39" width="22.68" height="12.76" transform="translate(-13.17 132.4) rotate(-30)"/><path class="cls-2" d="M185.83,373.12,232.42,400l-3.51,6.08-21.7-12.53h0v0l-2.67,4.62-3.14-1.82,2.66-4.62,0,0,0,0-21.7-12.53,3.52-6.08m0,0-3.55,6.13L204,391.76l-2.68,4.64,3.19,1.84,2.68-4.64,21.73,12.54,3.54-6.13-46.64-26.93Z" transform="translate(0 0)"/><rect class="cls-2" x="229.16" y="325.85" width="22.68" height="12.76" transform="translate(282.66 740.19) rotate(-150)"/><path class="cls-2" d="M20.61,277.74l46.6,26.9-3.52,6.08L42,298.19h0l0,0-2.66,4.62L36.14,301l2.67-4.62,0,0,0,0L17.1,283.82l3.51-6.08m0,0-3.54,6.13,21.73,12.55L36.1,301l3.2,1.84L42,298.22,63.7,310.76l3.55-6.13L20.6,277.7Z" transform="translate(0 0)"/><rect class="cls-2" x="63.94" y="230.47" width="22.68" height="12.76" transform="translate(22.06 479.61) rotate(-150)"/><path class="cls-2" d="M354.26,89.42v25.09h5.36v3.63h-5.36v25.08h-7V89.42h7m0,0H347.2v53.86h7.09V118.17h5.36v-3.69h-5.36V89.39Z" transform="translate(0 0)"/><rect class="cls-2" x="273.15" y="109.95" width="22.68" height="12.76" transform="translate(400.81 -168.16) rotate(90)"/><path class="cls-2" d="M354.27,280.19v25.09h5.36v3.63h-5.36V334h-7v-53.8h7m0,0h-7.08V334h7.08V308.93h5.37v-3.68h-5.37V280.16Z" transform="translate(0 0)"/><rect class="cls-2" x="273.15" y="300.71" width="22.68" height="12.76" transform="translate(591.58 22.6) rotate(90)"/></g></svg>