<svg id="Layer_1" data-name="Layer 1" xmlns="http://www.w3.org/2000/svg" viewBox="0 0 278.52 317.54"><defs><style>.cls-1,.cls-2{fill:none;stroke:blue;stroke-width:0.03px;}.cls-1{stroke-linejoin:bevel;}.cls-2{stroke-miterlimit:10;}</style></defs><title>platform_small</title><path class="cls-1" d="M167.59,276.31A13.52,13.52,0,0,1,147.42,290L37.71,226.55a13.51,13.51,0,0,1,1.77-24.29l75-29.85a13.56,13.56,0,0,1,15.29,3.77,26.76,26.76,0,0,0,15.32,8.9,13.55,13.55,0,0,1,10.85,11.33l11.69,79.9Z" transform="translate(0 0)"/><path class="cls-1" d="M156,121a13.55,13.55,0,0,1-10.87,11.33,26.8,26.8,0,0,0-15.32,8.85A13.55,13.55,0,0,1,114.53,145l-75-29.74A13.53,13.53,0,0,1,37.78,90.9L147.53,27.54a13.52,13.52,0,0,1,20.16,13.69L156,121Z" transform="translate(0 0)"/><path class="cls-1" d="M179.83,182.51a13.54,13.54,0,0,1-4.38-15,26.81,26.81,0,0,0,0-17.62,13.55,13.55,0,0,1,4.38-15.08L243,84.73A13.52,13.52,0,0,1,265,95.35V222.07a13.52,13.52,0,0,1-22,10.6l-63.19-50.16Z" transform="translate(0 0)"/><path class="cls-1" d="M9,186.27a.39.39,0,0,1,.1-.25.36.36,0,0,1,.26-.11H17.5a1.68,1.68,0,0,1,1.17.49,1.65,1.65,0,0,1,.48,1.17v14.69a1.65,1.65,0,0,1-.48,1.17,1.67,1.67,0,0,1-1.17.48H9.36a.32.32,0,0,1-.25-.1.36.36,0,0,1-.11-.26V186.27Z" transform="translate(0 0)"/><path class="cls-1" d="M9,113.91a.39.39,0,0,1,.1-.25.36.36,0,0,1,.26-.11H17.5a1.68,1.68,0,0,1,1.17.49,1.65,1.65,0,0,1,.48,1.17V129.9a1.65,1.65,0,0,1-.48,1.17,1.67,1.67,0,0,1-1.17.48H9.36a.32.32,0,0,1-.25-.1.36.36,0,0,1-.11-.26V113.91Z" transform="translate(0 0)"/><path class="cls-1" d="M259.48,58.94a.36.36,0,0,1,.16.22.36.36,0,0,1,0,.27l-4.07,7.05a1.64,1.64,0,0,1-1,.77,1.61,1.61,0,0,1-1.25-.16l-12.72-7.35a1.66,1.66,0,0,1-.61-2.26l4.07-7a.33.33,0,0,1,.22-.16.32.32,0,0,1,.27,0l15,8.64Z" transform="translate(0 0)"/><path class="cls-1" d="M196.81,22.76A.41.41,0,0,1,197,23a.36.36,0,0,1,0,.27l-4.07,7.05a1.66,1.66,0,0,1-2.26.61l-12.72-7.35a1.64,1.64,0,0,1-.77-1,1.68,1.68,0,0,1,.17-1.26l4.06-7a.36.36,0,0,1,.22-.16.32.32,0,0,1,.27,0l15,8.64Z" transform="translate(0 0)"/><path class="cls-1" d="M244.51,267.17a.36.36,0,0,1-.27,0A.36.36,0,0,1,244,267L240,260a1.68,1.68,0,0,1-.17-1.26,1.7,1.7,0,0,1,.78-1l12.72-7.35a1.61,1.61,0,0,1,1.25-.16,1.64,1.64,0,0,1,1,.77l4.07,7.05a.32.32,0,0,1,0,.27.36.36,0,0,1-.16.22l-15,8.64Z" transform="translate(0 0)"/><path class="cls-1" d="M181.85,303.35a.39.39,0,0,1-.28,0,.36.36,0,0,1-.22-.16l-4.06-7.05a1.68,1.68,0,0,1-.17-1.26,1.64,1.64,0,0,1,.77-1l12.72-7.35a1.66,1.66,0,0,1,2.26.61l4.07,7.05a.36.36,0,0,1,0,.27.41.41,0,0,1-.17.22l-15,8.64Z" transform="translate(0 0)"/><path class="cls-1" d="M271.74,261.82a13.53,13.53,0,0,0,6.77-11.72V67.37a13.52,13.52,0,0,0-6.77-11.72L178.52,1.83a13.52,13.52,0,0,0-13.53,0L6.78,93.17A13.53,13.53,0,0,0,0,104.89V212.58A13.57,13.57,0,0,0,6.77,224.3l158.09,91.4a13.51,13.51,0,0,0,13.54,0l93.34-53.89Z" transform="translate(0 0)"/><circle class="cls-2" cx="30.93" cy="158.66" r="3.54"/><circle class="cls-2" cx="150" cy="158.7" r="3.54"/><circle class="cls-2" cx="209.72" cy="55.44" r="3.54"/><circle class="cls-2" cx="209.63" cy="262.06" r="3.54"/></svg>