<svg id="Layer_1" data-name="Layer 1" xmlns="http://www.w3.org/2000/svg" viewBox="0 0 371.35 423.22"><defs><style>.cls-1,.cls-2{fill:none;stroke:blue;stroke-width:0.03px;}.cls-1{stroke-linejoin:bevel;}.cls-2{stroke-miterlimit:10;}</style></defs><title>platform_large</title><path class="cls-1" d="M362.28,348.94a18.06,18.06,0,0,0,9-15.63V89.78a18,18,0,0,0-9-15.62L238,2.44a18,18,0,0,0-18,0L9,124.17a18,18,0,0,0-9,15.62V283.31a18,18,0,0,0,9,15.62L219.79,420.75a18,18,0,0,0,18.05,0l124.44-71.81Z" transform="translate(0.01 0.01)"/><path class="cls-1" d="M239.74,243.23a18,18,0,0,1-5.83-20,35.7,35.7,0,0,0,0-23.47,18,18,0,0,1,5.83-20.11L324,112.92a18,18,0,0,1,29.24,14.15V296A18,18,0,0,1,324,310.09l-84.25-66.86Z" transform="translate(0.01 0.01)"/><path class="cls-1" d="M207.92,161.3a18.07,18.07,0,0,1-14.48,15.1A35.76,35.76,0,0,0,173,188.19a18.06,18.06,0,0,1-20.32,5l-100-39.64a18,18,0,0,1-2.37-32.39L196.68,36.7A18,18,0,0,1,223.55,55L207.92,161.3Z" transform="translate(0.01 0.01)"/><path class="cls-1" d="M223.42,368.24a18,18,0,0,1-26.89,18.23L50.27,301.93a18,18,0,0,1,2.36-32.38l99.94-39.78a18.06,18.06,0,0,1,20.38,5,35.8,35.8,0,0,0,20.43,11.86,18.06,18.06,0,0,1,14.46,15.11l15.58,106.47Z" transform="translate(0.01 0.01)"/><rect class="cls-2" x="0.01" y="0.01" width="371.32" height="423.19"/><path class="cls-1" d="M13.69,154.69a.39.39,0,0,1,.1-.25.36.36,0,0,1,.26-.11h8.14a1.68,1.68,0,0,1,1.17.49,1.65,1.65,0,0,1,.48,1.17v14.69a1.64,1.64,0,0,1-1.65,1.65H14.05a.34.34,0,0,1-.36-.36V154.69Z" transform="translate(0.01 0.01)"/><path class="cls-1" d="M13.69,251.12a.39.39,0,0,1,.1-.25.36.36,0,0,1,.26-.11h8.14a1.68,1.68,0,0,1,1.17.49,1.65,1.65,0,0,1,.48,1.17v14.69a1.65,1.65,0,0,1-.48,1.17,1.67,1.67,0,0,1-1.17.48H14.05a.35.35,0,0,1-.26-.1.4.4,0,0,1-.1-.26V251.12Z" transform="translate(0.01 0.01)"/><path class="cls-1" d="M342.47,78.77a.41.41,0,0,1,.17.22.39.39,0,0,1,0,.28l-4.07,7a1.64,1.64,0,0,1-1,.77,1.66,1.66,0,0,1-1.25-.17l-12.72-7.35a1.64,1.64,0,0,1-.77-1,1.68,1.68,0,0,1,.17-1.26l4.07-7a.41.41,0,0,1,.22-.17.36.36,0,0,1,.27,0l15,8.65Z" transform="translate(0.01 0.01)"/><path class="cls-1" d="M259,30.48a.37.37,0,0,1,.17.22.39.39,0,0,1,0,.28l-4.07,7a1.64,1.64,0,0,1-1,.77,1.66,1.66,0,0,1-1.25-.17l-12.72-7.35a1.65,1.65,0,0,1-.6-2.26l4.07-7a.36.36,0,0,1,.22-.16.35.35,0,0,1,.28,0L259,30.48Z" transform="translate(0.01 0.01)"/><path class="cls-1" d="M243.71,401.34a.36.36,0,0,1-.27,0,.38.38,0,0,1-.22-.17l-4.06-7a1.68,1.68,0,0,1-.17-1.26,1.64,1.64,0,0,1,.77-1l12.73-7.34a1.72,1.72,0,0,1,1.26-.16,1.64,1.64,0,0,1,1,.77l4.06,7.05a.39.39,0,0,1,0,.28.33.33,0,0,1-.17.21l-15,8.63Z" transform="translate(0.01 0.01)"/><path class="cls-1" d="M327.26,353.2a.36.36,0,0,1-.27,0,.41.41,0,0,1-.22-.17L322.71,346a1.66,1.66,0,0,1,.61-2.26l12.73-7.34a1.61,1.61,0,0,1,1.25-.16,1.64,1.64,0,0,1,1,.77l4.06,7.05a.32.32,0,0,1,0,.27.33.33,0,0,1-.16.22l-15,8.63Z" transform="translate(0.01 0.01)"/><circle class="cls-2" cx="80.99" cy="211.56" r="3.54"/><circle class="cls-2" cx="200.07" cy="211.6" r="3.54"/><circle class="cls-2" cx="259.79" cy="108.34" r="3.54"/><circle class="cls-2" cx="259.69" cy="314.96" r="3.54"/></svg>