<svg id="Layer_1" data-name="Layer 1" xmlns="http://www.w3.org/2000/svg" viewBox="0 0 792.03 612.03"><defs><style>.cls-1,.cls-2{fill:none;stroke-miterlimit:10;stroke-width:0.03px;}.cls-1{stroke:blue;}.cls-2{stroke:red;}</style></defs><title>ts_platform_under</title><rect class="cls-1" x="0.01" y="0.01" width="792" height="612" rx="17.01" ry="17.01"/><rect class="cls-2" x="27.09" y="24.96" width="737.86" height="562.11"/><path class="cls-1" d="M20.06,15.55A4.54,4.54,0,1,1,15.52,11,4.54,4.54,0,0,1,20.06,15.55Z" transform="translate(-0.49 -0.49)"/><path class="cls-1" d="M782,597.46a4.54,4.54,0,1,1-4.53-4.54A4.53,4.53,0,0,1,782,597.46Z" transform="translate(-0.49 -0.49)"/><path class="cls-1" d="M20.06,597.46a4.54,4.54,0,1,1-4.54-4.54A4.53,4.53,0,0,1,20.06,597.46Z" transform="translate(-0.49 -0.49)"/><path class="cls-1" d="M782,15.55A4.54,4.54,0,1,1,777.48,11,4.53,4.53,0,0,1,782,15.55Z" transform="translate(-0.49 -0.49)"/><path class="cls-1" d="M400.46,304.12a4.5,4.5,0,1,1-6.15-1.64A4.5,4.5,0,0,1,400.46,304.12Z" transform="translate(-0.49 -0.49)"/><path class="cls-1" d="M297.44,363.84a4.5,4.5,0,1,1-6.15-1.64A4.5,4.5,0,0,1,297.44,363.84Z" transform="translate(-0.49 -0.49)"/><path class="cls-1" d="M503.85,363.7a4.5,4.5,0,1,1-6.15-1.64A4.5,4.5,0,0,1,503.85,363.7Z" transform="translate(-0.49 -0.49)"/><path class="cls-1" d="M400.41,184.83a4.5,4.5,0,1,1-6.15-1.64A4.51,4.51,0,0,1,400.41,184.83Z" transform="translate(-0.49 -0.49)"/></svg>